:version 1.10
:name ASF
:units
  mass 1
  length 1
  angle deg
:documentation
  ASF file generated by Kaydara
:root
  axis xyz
  order  tx ty tz rx ry rz
  position 0 0 0
  orientation 0 0 0
:bonedata
  begin
    id 1
    name RightUpLegDummy
    direction -1 2.30186e-007 8.31532e-007
    length 4.04083
    axis 0 0 0 xyz
  end
  begin
    id 2
    name RightUpLeg
    direction -0.000919234 -0.999985 0.00544864
    length 17.4221
    axis -3.80308 -0.00076134 -0.0523649 xyz
    dof rx ry rz
  end
  begin
    id 3
    name RightLeg
    direction -0.000919271 -0.999984 -0.00555045
    length 17.1239
    axis 4.00314 0.0181274 -0.183583 xyz
    dof rx ry rz
  end
  begin
    id 4
    name RightFoot
    direction -2.57843e-005 -4.04509e-007 1
    length 6.72091
    axis 8.18909e-005 -0.122003 -0.403008 xyz
    dof rx ry rz
  end
  begin
    id 5
    name RightToes
    direction 0.00116825 -0.014069 0.9999
    length 3.85082
    axis 0.000514414 0.540638 -0.356797 xyz
    dof rx ry rz
  end
  begin
    id 6
    name SpineDummy
    direction 0.0168869 0.966876 -0.254689
    length 6.99894
    axis 0 0 0 xyz
  end
  begin
    id 7
    name Spine
    direction -0.0132008 0.999903 0.00446247
    length 11.1999
    axis -0.00148109 0.00725429 0.756411 xyz
    dof rx ry rz
  end
  begin
    id 8
    name Spine1
    direction 0 0 0
    length 0
    axis -0.000934958 0.0245693 1.46543 xyz
    dof rx ry rz
  end
  begin
    id 9
    name HEadDummy
    direction -0.0255732 0.999672 0.00128215
    length 3.43865
    axis -0.000934958 0.0245693 1.46543 xyz
  end
  begin
    id 10
    name HEad
    direction -0.0472656 0.980052 0.19304
    length 5.12695
    axis -0.000934954 0.0245693 1.46543 xyz
    dof rx ry rz
  end
  begin
    id 11
    name LeftShoulder1Dummy
    direction 0.953098 0.301717 -0.023914
    length 3.68488
    axis -0.000934958 0.0245693 1.46543 xyz
  end
  begin
    id 12
    name LeftShoulder1
    direction 0.962466 0.271167 0.0112566
    length 3.13809
    axis -0.000934958 0.0245693 1.46543 xyz
    dof rx ry rz
  end
  begin
    id 13
    name LeftArm
    direction 0.999943 0.00455037 -0.00961766
    length 11.3419
    axis -23.1648 0.685459 1.22814 xyz
    dof rx ry rz
  end
  begin
    id 14
    name LeftForeArm
    direction 0.999332 0.0131969 0.0340885
    length 8.70632
    axis -9.90633 0.618216 0.0826942 xyz
    dof rx ry rz
  end
  begin
    id 15
    name LeftHand
    direction 0.994373 -0.0366703 0.0993905
    length 5.32135
    axis 0.00675269 0.680415 0.445699 xyz
    dof rx ry rz
  end
  begin
    id 16
    name RightShoulderDummy
    direction -0.967298 0.252589 -0.0230903
    length 3.68488
    axis -0.000934958 0.0245693 1.46543 xyz
  end
  begin
    id 17
    name RightShoulder
    direction -0.975062 0.221602 0.0120823
    length 3.13809
    axis 0.216257 0.0246515 1.45863 xyz
    dof rx ry rz
  end
  begin
    id 18
    name RightArm
    direction -0.99886 -0.00851186 -0.0469687
    length 10.3947
    axis -23.196 0.23503 -0.532632 xyz
    dof rx ry rz
  end
  begin
    id 19
    name RightForeArm
    direction -0.99909 0.00114866 0.0426317
    length 8.68355
    axis -9.91764 -0.134943 0.610517 xyz
    dof rx ry rz
  end
  begin
    id 20
    name RightHand
    direction -0.992888 -0.0489538 0.10852
    length 5.28593
    axis -0.00275396 -0.197403 0.246414 xyz
    dof rx ry rz
  end
  begin
    id 21
    name LeftUpLegDummy
    direction 1 -2.30186e-007 -8.31532e-007
    length 4.04083
    axis 0 0 0 xyz
  end
  begin
    id 22
    name LeftUpLeg
    direction -0.000920097 -1 2.79241e-006
    length 17.4221
    axis -3.48782 0.00143434 -0.0532288 xyz
    dof rx ry rz
  end
  begin
    id 23
    name LeftLeg
    direction -0.000920097 -1 2.7912e-006
    length 17.1239
    axis 3.68162 -0.00806512 -0.0529896 xyz
    dof rx ry rz
  end
  begin
    id 24
    name LeftFoot
    direction -2.57845e-005 -3.987e-007 1
    length 6.72091
    axis 3.02372e-005 -0.00147829 -0.214229 xyz
    dof rx ry rz
  end
  begin
    id 25
    name LeftToes
    direction 0.00813577 -0.00488255 0.999955
    length 3.85048
    axis 3.89895e-005 -0.0014783 -0.214229 xyz
    dof rx ry rz
  end
:hierarchy
  begin
    root RightUpLegDummy SpineDummy LeftUpLegDummy
    RightUpLegDummy RightUpLeg
    RightUpLeg RightLeg
    RightLeg RightFoot
    RightFoot RightToes
    SpineDummy Spine
    Spine Spine1
    Spine1 HEadDummy LeftShoulder1Dummy RightShoulderDummy
    HEadDummy HEad
    LeftShoulder1Dummy LeftShoulder1
    LeftShoulder1 LeftArm
    LeftArm LeftForeArm
    LeftForeArm LeftHand
    RightShoulderDummy RightShoulder
    RightShoulder RightArm
    RightArm RightForeArm
    RightForeArm RightHand
    LeftUpLegDummy LeftUpLeg
    LeftUpLeg LeftLeg
    LeftLeg LeftFoot
    LeftFoot LeftToes
  end

:SAMPLES-PER-SECOND 30
:FULLY-SPECIFIED
:DEGREES
53
root  -10.7042 34.7448 -12.1248 -171.372 6.59973 179.975
RightUpLeg  -4.72986 -15.0413 -2.95546
RightLeg  1.11611 -2.81227 0.1266
RightFoot  7.37005 0.065357 -0.194355
RightToes  -27.5743 -0.117119 -0.230814
Spine  -3.06508 0.478771 -1.13891
Spine1  -6.07904 0.835331 -1.4942
HEad  -61.2012 3.25222 9.45238
LeftShoulder1  -1.94126e-019 -3.10601e-018 -2.51263e-017
LeftArm  -8.40664 23.8552 -76.1196
LeftForeArm  32.6942 -21.5829 -3.52955
LeftHand  -0.233971 -0.0695668 5.026
RightShoulder  -4.96962e-017 0 -2.36833e-017
RightArm  -67.2661 11.0598 53.9411
RightForeArm  178.11 67.3153 157.535
RightHand  1.76783 -11.4737 -32.6761
LeftUpLeg  -4.85107 4.39455 3.11503
LeftLeg  0.461106 13.0116 -0.725925
LeftFoot  8.14618 -0.137966 2.04722
LeftToes  -26.2119 2.14545e-006 -7.7278e-009
54
root  -10.6938 34.737 -12.1753 -171.405 6.72319 -179.969
RightUpLeg  -4.61212 -15.0909 -2.93454
RightLeg  1.08677 -2.62818 0.11967
RightFoot  7.34184 0.0641295 -0.170928
RightToes  -27.6326 -0.117119 -0.230814
Spine  -3.10958 0.462517 -1.05486
Spine1  -6.15714 0.782825 -1.34393
HEad  -61.2901 3.17606 8.40243
LeftShoulder1  -1.94126e-019 -3.10601e-018 -2.51263e-017
LeftArm  -9.49929 23.6912 -76.7077
LeftForeArm  32.8379 -21.1395 -3.50219
LeftHand  -0.24213 0.116202 5.36518
RightShoulder  -4.96962e-017 0 -2.36833e-017
RightArm  -63.0048 9.15474 54.7656
RightForeArm  -176.151 66.5684 158.913
RightHand  1.46826 -10.717 -31.1511
LeftUpLeg  -4.76466 4.30948 3.17978
LeftLeg  0.586122 13.2338 -0.709414
LeftFoot  8.00881 -0.137905 2.04817
LeftToes  -26.2603 2.14545e-006 -7.7278e-009
55
root  -10.6758 34.7391 -12.217 -171.478 6.85442 -179.926
RightUpLeg  -4.46378 -14.9466 -2.91705
RightLeg  1.05337 -2.62252 0.120935
RightFoot  7.34386 0.0646579 -0.17282
RightToes  -27.5853 -0.117119 -0.230814
Spine  -3.07728 0.401112 -0.999065
Spine1  -6.0755 0.629505 -1.20693
HEad  -61.8712 3.63578 7.57917
LeftShoulder1  -1.94126e-019 -3.10601e-018 -2.51263e-017
LeftArm  -9.77577 23.9064 -77.0088
LeftForeArm  32.6357 -21.7011 -3.5716
LeftHand  -0.237795 0.0676972 5.22581
RightShoulder  -4.96962e-017 0 -2.36833e-017
RightArm  -55.1835 6.55157 54.438
RightForeArm  -168.076 64.4568 161.576
RightHand  0.837629 -8.55789 -30.0506
LeftUpLeg  -4.5805 4.29162 3.24338
LeftLeg  0.564479 13.3765 -0.72194
LeftFoot  7.96939 -0.13847 2.05908
LeftToes  -26.1939 2.14545e-006 -7.7278e-009
56
root  -10.6641 34.7425 -12.2499 -171.577 6.98877 -179.911
RightUpLeg  -4.27951 -14.7798 -2.93455
RightLeg  0.954955 -2.64046 0.126279
RightFoot  7.40997 0.0657487 -0.18298
RightToes  -27.6671 -0.117119 -0.230814
Spine  -3.04782 0.287802 -0.990402
Spine1  -5.99125 0.355012 -1.14171
HEad  -62.4389 4.34971 7.06952
LeftShoulder1  -1.94126e-019 -3.10601e-018 -2.51263e-017
LeftArm  -8.91407 24.3319 -76.9627
LeftForeArm  32.2067 -22.7604 -3.69876
LeftHand  -0.232382 -0.122174 4.94948
RightShoulder  -4.96962e-017 0 -2.36833e-017
RightArm  -45.4157 4.50278 53.3472
RightForeArm  -161.873 62.0166 163.903
RightHand  0.284537 -6.51974 -28.8877
LeftUpLeg  -4.35048 4.29789 3.26951
LeftLeg  0.452547 13.5058 -0.754994
LeftFoot  7.98235 -0.139619 2.07929
LeftToes  -26.0587 2.14545e-006 -7.7278e-009
57
root  -10.647 34.743 -12.2823 -171.6 7.15962 -179.906
RightUpLeg  -4.1903 -14.6846 -2.92961
RightLeg  0.876725 -2.58749 0.12727
RightFoot  7.40742 0.0661108 -0.182964
RightToes  -27.6446 -0.117119 -0.230814
Spine  -3.07218 0.173088 -1.00504
Spine1  -6.01182 0.0691504 -1.13647
HEad  -63.0455 5.1285 6.77902
LeftShoulder1  -1.94126e-019 -3.10601e-018 -2.51263e-017
LeftArm  -7.52507 24.7366 -76.6884
LeftForeArm  31.8275 -23.6081 -3.795
LeftHand  -0.222584 -0.149852 4.72063
RightShoulder  -4.96962e-017 0 -2.36833e-017
RightArm  -35.7781 3.27311 51.938
RightForeArm  -153.038 60.079 165.781
RightHand  -0.28221 -4.23156 -27.669
LeftUpLeg  -4.1964 4.38927 3.28666
LeftLeg  0.357458 13.592 -0.782123
LeftFoot  7.98013 -0.140043 2.08843
LeftToes  -25.9975 2.14545e-006 -7.7278e-009
58
root  -10.6284 34.7419 -12.3108 -171.616 7.31393 -179.871
RightUpLeg  -4.11029 -14.5883 -2.89211
RightLeg  0.802824 -2.54504 0.128455
RightFoot  7.39455 0.0661577 -0.178691
RightToes  -27.529 -0.117119 -0.230814
Spine  -3.07513 0.19518 -1.02909
Spine1  -5.99809 0.0733774 -1.18189
HEad  -63.448 5.2898 7.01885
LeftShoulder1  -1.94126e-019 -3.10601e-018 -2.51263e-017
LeftArm  -6.5416 24.7304 -76.4527
LeftForeArm  31.9066 -23.9845 -3.83903
LeftHand  -0.223338 -0.258069 4.65631
RightShoulder  -4.96962e-017 0 -2.36833e-017
RightArm  -29.4794 2.56099 50.7389
RightForeArm  -139.862 59.1475 167.134
RightHand  -0.939395 -1.69691 -29.0853
LeftUpLeg  -4.07907 4.47937 3.34034
LeftLeg  0.313852 13.6498 -0.795705
LeftFoot  7.96303 -0.139995 2.09042
LeftToes  -26.0598 2.14545e-006 -7.7278e-009
59
root  -10.6154 34.7384 -12.3318 -171.621 7.25323 -179.836
RightUpLeg  -4.00612 -14.6986 -2.85568
RightLeg  0.710564 -2.48863 0.129604
RightFoot  7.39662 0.066237 -0.175137
RightToes  -27.5772 -0.117119 -0.230814
Spine  -3.04202 0.274491 -1.06312
Spine1  -5.92133 0.212666 -1.24636
HEad  -63.8423 4.97174 7.36288
LeftShoulder1  -1.94126e-019 -3.10601e-018 -2.51263e-017
LeftArm  -6.66756 24.4649 -76.4013
LeftForeArm  32.2695 -24.08 -3.85321
LeftHand  -0.223068 -0.342821 4.70356
RightShoulder  -4.96962e-017 0 -2.36833e-017
RightArm  -28.1452 2.28214 50.1985
RightForeArm  -130.623 59.1194 167.614
RightHand  -1.29544 -0.752892 -31.8446
LeftUpLeg  -4.03205 4.26948 3.39895
LeftLeg  0.296011 13.8008 -0.808602
LeftFoot  7.93053 -0.140699 2.10427
LeftToes  -26.0167 2.14545e-006 -7.7278e-009
60
root  -10.61 34.7365 -12.3518 -171.629 6.90286 -179.806
RightUpLeg  -3.87663 -14.9973 -2.82477
RightLeg  0.671054 -2.50413 0.13213
RightFoot  7.38697 0.0665145 -0.17468
RightToes  -27.5605 -0.117119 -0.230814
Spine  -3.01005 0.313482 -1.10194
Spine1  -5.86195 0.302811 -1.3265
HEad  -63.9621 4.60358 7.48858
LeftShoulder1  -1.94126e-019 -3.10601e-018 -2.51263e-017
LeftArm  -7.09945 24.3207 -76.336
LeftForeArm  32.0763 -24.2054 -3.88294
LeftHand  -0.221628 -0.216149 4.80466
RightShoulder  -4.96962e-017 0 -2.36833e-017
RightArm  -31.4981 2.65152 50.5722
RightForeArm  -135.748 59.314 167.264
RightHand  -0.842415 -2.16655 -29.8455
LeftUpLeg  -4.06513 3.99167 3.4595
LeftLeg  0.331357 13.7442 -0.796926
LeftFoot  7.89781 -0.139545 2.08937
LeftToes  -26.0804 2.14545e-006 -7.7278e-009
61
root  -10.6075 34.7355 -12.37 -171.645 6.41405 -179.815
RightUpLeg  -3.77639 -15.287 -2.82852
RightLeg  0.737363 -2.67983 0.138299
RightFoot  7.3215 0.0677956 -0.188837
RightToes  -27.6234 -0.117119 -0.230814
Spine  -3.00177 0.296379 -1.13442
Spine1  -5.86298 0.305615 -1.40024
HEad  -63.9274 4.45486 7.55144
LeftShoulder1  -1.94126e-019 -3.10601e-018 -2.51263e-017
LeftArm  -7.19999 24.3854 -76.1838
LeftForeArm  31.7821 -24.2453 -3.89248
LeftHand  -0.221227 -0.101061 4.84017
RightShoulder  -4.96962e-017 0 -2.36833e-017
RightArm  -38.2506 3.90034 51.7812
RightForeArm  -147.992 60.3929 165.943
RightHand  -0.142609 -4.78887 -26.5336
LeftUpLeg  -4.14334 3.74361 3.48845
LeftLeg  0.403659 13.5254 -0.765117
LeftFoot  7.91753 -0.137734 2.06439
LeftToes  -26.1155 2.14545e-006 -7.7278e-009
62
root  -10.6075 34.7335 -12.3817 -171.629 5.97258 -179.831
RightUpLeg  -3.73818 -15.4568 -2.83039
RightLeg  0.823604 -2.93825 0.147211
RightFoot  7.23942 0.0696408 -0.211338
RightToes  -27.5855 -0.117119 -0.230814
Spine  -3.00861 0.268312 -1.15785
Spine1  -5.89835 0.292125 -1.4606
HEad  -63.7001 4.41766 7.57852
LeftShoulder1  -1.94126e-019 -3.10601e-018 -2.51263e-017
LeftArm  -6.8506 24.4996 -75.9489
LeftForeArm  31.7846 -24.0115 -3.85003
LeftHand  -0.22328 -0.144064 4.72263
RightShoulder  -4.96962e-017 0 -2.36833e-017
RightArm  -46.1867 5.80193 53.1503
RightForeArm  -160.119 62.464 163.74
RightHand  0.43192 -7.46466 -24.3199
LeftUpLeg  -4.25818 3.62674 3.50051
LeftLeg  0.47454 13.2201 -0.722189
LeftFoot  7.93624 -0.135074 2.02633
LeftToes  -26.2247 2.14545e-006 -7.7278e-009
63
root  -10.6058 34.7314 -12.3873 -171.592 5.69778 -179.836
RightUpLeg  -3.75678 -15.59 -2.81746
RightLeg  0.904874 -3.0868 0.150278
RightFoot  7.1117 0.0703937 -0.218515
RightToes  -27.3121 -0.117119 -0.230814
Spine  -3.02942 0.293475 -1.17345
Spine1  -5.95864 0.376032 -1.51289
HEad  -63.3992 4.61004 7.65824
LeftShoulder1  -1.94126e-019 -3.10601e-018 -2.51263e-017
LeftArm  -6.40729 24.5436 -75.7277
LeftForeArm  32.0665 -23.4147 -3.75434
LeftHand  -0.223575 -0.199265 4.70448
RightShoulder  -4.96962e-017 0 -2.36833e-017
RightArm  -52.911 7.55223 54.0937
RightForeArm  -167.651 64.8171 161.315
RightHand  0.845152 -9.46041 -24.0674
LeftUpLeg  -4.3695 3.5107 3.51769
LeftLeg  0.543539 13.0682 -0.700392
LeftFoot  7.92688 -0.133389 2.00355
LeftToes  -26.2257 2.14545e-006 -7.7278e-009
